<?xml version="1.0" encoding="UTF-8"?>
<svg version="1.1" xmlns="http://www.w3.org/2000/svg" width="105" height="117">
<path d="M0 0 C-1.36516379 4.46780876 -3.09890512 6.45029929 -7 9 C-10.53125 9.65234375 -10.53125 9.65234375 -14.5 9.9375 C-24.13091588 10.88342319 -33.53136005 12.67843182 -40.25 20.1875 C-41.72493705 22.09688633 -42.92217935 23.84435871 -44 26 C-44.66 26 -45.32 26 -46 26 C-47.75747614 30.50353262 -48.19294408 34.17639811 -48 39 C-44.73463941 40.6326803 -41.52801034 40.55180195 -38 40 C-35.38450853 38.83302565 -32.91590182 37.48821918 -30.40234375 36.1171875 C-26.97840224 34.52491551 -24.71479902 34.53565012 -21 35 C-20.01 35.495 -20.01 35.495 -19 36 C-20.83725571 41.67879037 -23.90654553 45.76101674 -29.0625 48.8125 C-36.06729636 51.64422619 -43.37968287 51.98178092 -50.6875 50 C-51.450625 49.67 -52.21375 49.34 -53 49 C-53.33 50.98 -53.66 52.96 -54 55 C-46.28548916 57.40957014 -35.55122627 57.14477848 -28.05078125 54.09375 C-17.69619368 48.5713033 -12.65868236 40.97604708 -9 30 C-17.91 30 -26.82 30 -36 30 C-32 23 -32 23 -31 22 C-19.89268166 19.72804852 -8.19284933 21.06027052 3 22 C2.63057454 36.87777097 -3.79046522 48.21728497 -14.3125 58.3125 C-24.3016288 66.89904564 -36.21285877 67.71201146 -48.83740234 67.19677734 C-54.64026021 66.66876838 -59.24485181 64.17009879 -64 61 C-66.62981054 45.76605247 -59.80722647 28.70606656 -51.15625 16.37109375 C-42.64263743 6.06055065 -31.51080739 0.6695049 -18.375 -0.6875 C-12.17351909 -1.11669854 -6.08863001 -1.5221575 0 0 Z " fill="#090909" transform="translate(84,40)"/>
<path d="M0 0 C-4.76293634 8.5732854 -4.76293634 8.5732854 -7.77368164 9.61181641 C-10.41377931 10.07214707 -12.94090316 10.16317476 -15.62109375 10.2109375 C-35.84966761 10.69200283 -53.44192328 11.79210022 -68.8203125 26.60546875 C-78.64917908 37.40313043 -82.97945923 53.01012697 -86 67 C-89 66 -89 66 -90.1328125 64.33984375 C-93.27131836 55.8715329 -92.45204127 46.58074631 -89.484375 38.2265625 C-82.31598947 22.64475605 -69.82116673 10.03688693 -53.828125 3.75390625 C-36.8203278 -1.69577525 -17.59530987 -2.22423782 0 0 Z " fill="#0C0C0C" transform="translate(100,23)"/>
<path d="M0 0 C-0.33 1.32 -0.66 2.64 -1 4 C2.96 4.33 6.92 4.66 11 5 C10.67 5.66 10.34 6.32 10 7 C4.06 7 -1.88 7 -8 7 C-3.8 0 -3.8 0 0 0 Z " fill="#0B0B0B" transform="translate(56,63)"/>
<path d="M0 0 C0.66 0 1.32 0 2 0 C1.67 1.32 1.34 2.64 1 4 C3.97 4.33 6.94 4.66 10 5 C10 5.33 10 5.66 10 6 C5.71 6 1.42 6 -3 6 C-1 1 -1 1 0 0 Z " fill="#1E1E1E" transform="translate(54,63)"/>
</svg>
