<?xml version="1.0" encoding="UTF-8"?>
<svg version="1.1" xmlns="http://www.w3.org/2000/svg" width="388" height="147">
<path d="M0 0 C128.04 0 256.08 0 388 0 C388 48.51 388 97.02 388 147 C259.96 147 131.92 147 0 147 C0 98.49 0 49.98 0 0 Z " fill="#FDFDFD" transform="translate(0,0)"/>
<path d="M0 0 C1.06541016 0.00902344 2.13082031 0.01804688 3.22851562 0.02734375 C5.84008034 0.05076586 8.45116937 0.08356548 11.0625 0.125 C7.3125 5.875 7.3125 5.875 5.0625 8.125 C2.88211108 8.35375262 0.69096789 8.48450438 -1.5 8.5625 C-12.76088478 9.25123913 -23.38752553 12.82707904 -31.25 21.375 C-34.57647488 25.64239206 -39.22655958 31.69933647 -38.75390625 37.30078125 C-37.96917746 39.48873281 -37.96917746 39.48873281 -34.9375 41.125 C-29.27807589 41.95504887 -24.81675708 41.21916302 -19.9375 38.125 C-19.2775 37.465 -18.6175 36.805 -17.9375 36.125 C-15.5546875 35.9296875 -15.5546875 35.9296875 -12.8125 36 C-11.90242188 36.01804688 -10.99234375 36.03609375 -10.0546875 36.0546875 C-9.35601562 36.07789063 -8.65734375 36.10109375 -7.9375 36.125 C-11.03299672 42.56585415 -14.52049021 46.75087758 -21.19921875 49.43359375 C-27.50888889 51.02676296 -34.99207139 51.66465586 -40.859375 48.59765625 C-41.54515625 48.11167969 -42.2309375 47.62570313 -42.9375 47.125 C-43.2675 50.095 -43.5975 53.065 -43.9375 56.125 C-34.84913896 58.28722129 -23.73517818 58.60612896 -15.1796875 54.515625 C-5.29223549 48.38333769 -0.09333893 41.17043627 3.0625 30.125 C-6.1775 30.125 -15.4175 30.125 -24.9375 30.125 C-18.9375 23.125 -18.9375 23.125 -17.9375 22.125 C-15.5618148 22.0366033 -13.21541326 22.00969695 -10.83984375 22.02734375 C-9.77655602 22.02946617 -9.77655602 22.02946617 -8.69178772 22.03163147 C-6.41948288 22.03724557 -4.14727525 22.04980037 -1.875 22.0625 C-0.33789204 22.06751319 1.19921745 22.07207641 2.73632812 22.07617188 C6.51175642 22.08721958 10.28711171 22.10449359 14.0625 22.125 C13.77074203 23.85243455 13.47260144 25.57879166 13.171875 27.3046875 C13.00655273 28.26616699 12.84123047 29.22764648 12.67089844 30.21826172 C9.99355428 43.00977838 2.59268305 53.51495175 -7.9375 61.125 C-18.69727392 66.81656807 -29.76254348 68.77518791 -41.65234375 65.90234375 C-45.705704 64.52350838 -49.3098776 62.37189614 -52.9375 60.125 C-53.13379669 54.62869272 -52.46462954 49.7302047 -51.25 44.375 C-51.07065918 43.58295166 -50.89131836 42.79090332 -50.70654297 41.97485352 C-47.22839501 27.36931447 -40.16899459 14.52336982 -27.2265625 6.4296875 C-18.01473317 1.20544456 -10.49410479 -0.16936482 0 0 Z " fill="#0A0A0A" transform="translate(101.9375,54.875)"/>
<path d="M0 0 C1.63150488 0.010057 3.26301581 0.01917801 4.89453125 0.02734375 C8.8465067 0.04912548 12.79818442 0.08350274 16.75 0.125 C15.77180976 1.43822788 14.7924189 2.75056152 13.8125 4.0625 C12.99458984 5.15884766 12.99458984 5.15884766 12.16015625 6.27734375 C10.75 8.125 10.75 8.125 9.75 9.125 C7.45372476 9.23532299 5.15430748 9.2809919 2.85546875 9.30078125 C1.40949139 9.32402574 -0.03647212 9.34814478 -1.48242188 9.37304688 C-3.75521468 9.40780352 -6.02751406 9.43729009 -8.30053711 9.45092773 C-25.04342026 9.5709815 -39.47232311 13.53321586 -52.0625 25.3125 C-63.19387624 37.28929722 -66.44282667 51.75849047 -70.25 67.125 C-73.45691405 63.63922386 -73.87955519 60.79260459 -74.25 56.125 C-74.32605469 55.30773437 -74.40210938 54.49046875 -74.48046875 53.6484375 C-75.20282537 40.09937015 -67.79171312 29.90546305 -59.4140625 19.94140625 C-43.21662762 2.41127103 -22.42843105 -0.24274185 0 0 Z " fill="#0E0E0E" transform="translate(112.25,37.875)"/>
<path d="M0 0 C1.25361328 0.00322266 2.50722656 0.00644531 3.79882812 0.00976562 C5.76432617 0.02233398 5.76432617 0.02233398 7.76953125 0.03515625 C9.10481606 0.04017308 10.44010266 0.04473566 11.77539062 0.04882812 C15.04431598 0.0606293 18.31315116 0.07709328 21.58203125 0.09765625 C21.58203125 2.40765625 21.58203125 4.71765625 21.58203125 7.09765625 C20.74953857 7.11223877 19.9170459 7.12682129 19.05932617 7.1418457 C15.96713472 7.20294255 12.87561043 7.27710181 9.78393555 7.36010742 C7.78912495 7.40966944 5.79395868 7.44416758 3.79882812 7.47851562 C2.54521484 7.51396484 1.29160156 7.54941406 0 7.5859375 C-1.15733643 7.61212158 -2.31467285 7.63830566 -3.50708008 7.6652832 C-6.39169695 7.8734619 -6.39169695 7.8734619 -8.29199219 9.40136719 C-10.235064 12.32861414 -9.88887801 15.64259757 -9.85546875 19.03515625 C-9.88543945 20.10926758 -9.88543945 20.10926758 -9.91601562 21.20507812 C-9.91297016 24.49113091 -9.63005268 26.74510835 -7.92578125 29.578125 C-4.25178692 31.80426798 -1.06750213 31.60772567 3.14453125 31.47265625 C3.91216797 31.47136719 4.67980469 31.47007813 5.47070312 31.46875 C9.32976979 31.40818923 11.30908021 31.27962361 14.58203125 29.09765625 C14.91203125 26.78765625 15.24203125 24.47765625 15.58203125 22.09765625 C10.63203125 22.09765625 5.68203125 22.09765625 0.58203125 22.09765625 C0.58203125 20.11765625 0.58203125 18.13765625 0.58203125 16.09765625 C7.84203125 16.09765625 15.10203125 16.09765625 22.58203125 16.09765625 C22.99206206 30.72208862 22.99206206 30.72208862 19.58203125 35.09765625 C14.8643742 39.37969723 9.84454324 38.64927563 3.76953125 38.66015625 C2.70154297 38.69689453 1.63355469 38.73363281 0.53320312 38.77148438 C-4.64075437 38.80028191 -8.42797612 38.70864744 -12.5546875 35.375 C-17.2928191 30.46352212 -17.7613592 25.81395961 -17.73046875 19.16015625 C-17.74658203 18.46986328 -17.76269531 17.77957031 -17.77929688 17.06835938 C-17.78379462 12.32324188 -16.91164053 9.12085941 -14.41796875 5.09765625 C-9.67687203 0.71214178 -6.34533953 -0.02871194 0 0 Z " fill="#121212" transform="translate(151.41796875,57.90234375)"/>
<path d="M0 0 C1.20269531 -0.02578125 2.40539062 -0.0515625 3.64453125 -0.078125 C8.50362378 0.37189018 11.91388733 1.72166479 15.0625 5.5 C16.46446267 8.92701987 16.4645359 11.57927431 16.1875 15.25 C15.8575 15.91 15.5275 16.57 15.1875 17.25 C7.2675 17.25 -0.6525 17.25 -8.8125 17.25 C-6.54313305 22.31630804 -6.54313305 22.31630804 -3.54418945 22.90942383 C-2.68011475 22.92513428 -1.81604004 22.94084473 -0.92578125 22.95703125 C0.01201172 22.98603516 0.94980469 23.01503906 1.91601562 23.04492188 C2.89248047 23.05072266 3.86894531 23.05652344 4.875 23.0625 C6.35709961 23.10020508 6.35709961 23.10020508 7.86914062 23.13867188 C10.30899336 23.19760552 12.74704995 23.23383808 15.1875 23.25 C15.1875 25.23 15.1875 27.21 15.1875 29.25 C11.50060953 29.42550193 7.81480299 29.5312482 4.125 29.625 C3.08666016 29.67527344 2.04832031 29.72554687 0.97851562 29.77734375 C-5.31141134 29.89715188 -8.9862537 29.35426769 -13.60327148 24.93994141 C-16.76716586 20.51828244 -16.29285765 14.4412336 -15.8125 9.25 C-14.35635098 5.99099981 -12.55732692 3.53735576 -9.8125 1.25 C-6.38258462 0.10669487 -3.6138584 0.04618349 0 0 Z " fill="#101010" transform="translate(303.8125,66.75)"/>
<path d="M0 0 C2.49875639 1.4032682 4.25971518 2.57802411 5.55859375 5.17578125 C5.55859375 8.80578125 5.55859375 12.43578125 5.55859375 16.17578125 C-2.36140625 16.17578125 -10.28140625 16.17578125 -18.44140625 16.17578125 C-17.78140625 17.82578125 -17.12140625 19.47578125 -16.44140625 21.17578125 C-9.51140625 21.50578125 -2.58140625 21.83578125 4.55859375 22.17578125 C4.55859375 24.15578125 4.55859375 26.13578125 4.55859375 28.17578125 C0.99624947 28.26319249 -2.56581733 28.31631021 -6.12890625 28.36328125 C-7.13630859 28.38841797 -8.14371094 28.41355469 -9.18164062 28.43945312 C-18.55081068 28.53221718 -18.55081068 28.53221718 -22.44140625 25.17578125 C-26.20458464 19.98519036 -26.14774821 14.34450101 -25.44140625 8.17578125 C-24.00362198 4.88941721 -22.1985051 2.47336363 -19.44140625 0.17578125 C-13.5478161 -1.7887488 -5.91326116 -1.99631697 0 0 Z " fill="#0C0C0C" transform="translate(238.44140625,67.82421875)"/>
<path d="M0 0 C1.07443359 0.01804687 2.14886719 0.03609375 3.25585938 0.0546875 C5.90065465 0.10170608 8.54361589 0.1674084 11.1875 0.25 C11.1875 2.23 11.1875 4.21 11.1875 6.25 C0.7925 6.745 0.7925 6.745 -9.8125 7.25 C-9.8125 8.24 -9.8125 9.23 -9.8125 10.25 C-8.71550781 10.28738281 -7.61851562 10.32476562 -6.48828125 10.36328125 C-5.03382143 10.42896653 -3.57939584 10.49541299 -2.125 10.5625 C-1.0431543 10.59633789 -1.0431543 10.59633789 0.06054688 10.63085938 C4.5296267 10.8553337 7.53233565 11.419519 11.1875 14.25 C12.76648053 17.40796107 13.00678171 20.85670636 12.1875 24.25 C10.43359375 26.9921875 10.43359375 26.9921875 7.1875 29.25 C3.06659266 29.86359932 -0.97053726 29.72032588 -5.125 29.5625 C-6.24712891 29.53994141 -7.36925781 29.51738281 -8.52539062 29.49414062 C-11.28912536 29.43533776 -14.05012554 29.35320401 -16.8125 29.25 C-16.8125 27.27 -16.8125 25.29 -16.8125 23.25 C-9.5525 22.92 -2.2925 22.59 5.1875 22.25 C5.1875 20.93 5.1875 19.61 5.1875 18.25 C3.43373047 18.21132812 3.43373047 18.21132812 1.64453125 18.171875 C0.09631774 18.11557633 -1.4518579 18.05822938 -3 18 C-3.76892578 17.98582031 -4.53785156 17.97164062 -5.33007812 17.95703125 C-9.19665344 17.79108381 -11.42324471 17.47820155 -14.82421875 15.484375 C-17.03398897 13.00109688 -17.49358192 12.02518387 -17.4375 8.75 C-17.45039063 7.9971875 -17.46328125 7.244375 -17.4765625 6.46875 C-15.07153009 -1.5668877 -6.76472308 -0.2148843 0 0 Z " fill="#121112" transform="translate(341.8125,66.75)"/>
<path d="M0 0 C0.98613281 0.00322266 1.97226563 0.00644531 2.98828125 0.00976562 C4.02082031 0.01814453 5.05335938 0.02652344 6.1171875 0.03515625 C7.67759766 0.04192383 7.67759766 0.04192383 9.26953125 0.04882812 C11.84380712 0.06063673 14.41796896 0.0771055 16.9921875 0.09765625 C16.9921875 2.07765625 16.9921875 4.05765625 16.9921875 6.09765625 C10.3921875 6.42765625 3.7921875 6.75765625 -3.0078125 7.09765625 C-3.0078125 8.41765625 -3.0078125 9.73765625 -3.0078125 11.09765625 C-1.25404297 11.11892578 -1.25404297 11.11892578 0.53515625 11.140625 C2.08337207 11.18754063 3.63154794 11.23578794 5.1796875 11.28515625 C5.94861328 11.29095703 6.71753906 11.29675781 7.50976562 11.30273438 C11.77057005 11.4673148 13.5426158 11.74533646 17.0078125 14.4609375 C18.9921875 17.09765625 18.9921875 17.09765625 19.5546875 20.09765625 C18.86861093 23.75673129 17.56484436 25.44933301 14.9921875 28.09765625 C12.43495521 29.3762724 10.62481648 29.21102234 7.765625 29.1953125 C6.734375 29.19208984 5.703125 29.18886719 4.640625 29.18554688 C3.02027344 29.17297852 3.02027344 29.17297852 1.3671875 29.16015625 C-0.26476562 29.15338867 -0.26476562 29.15338867 -1.9296875 29.14648438 C-4.62245039 29.13467401 -7.31510438 29.11820403 -10.0078125 29.09765625 C-10.0078125 27.11765625 -10.0078125 25.13765625 -10.0078125 23.09765625 C0.3871875 22.60265625 0.3871875 22.60265625 10.9921875 22.09765625 C10.9921875 20.77765625 10.9921875 19.45765625 10.9921875 18.09765625 C9.34669922 18.05898437 9.34669922 18.05898437 7.66796875 18.01953125 C6.21350302 17.96322935 4.75907747 17.90588248 3.3046875 17.84765625 C2.58345703 17.83347656 1.86222656 17.81929687 1.11914062 17.8046875 C-3.76353389 17.58173433 -6.50885025 16.80361818 -10.0078125 13.09765625 C-11.0703125 9.66015625 -11.0703125 9.66015625 -11.0078125 6.09765625 C-7.84416155 1.07945129 -5.74831419 -0.03303629 0 0 Z " fill="#0D0D0D" transform="translate(190.0078125,66.90234375)"/>
<path d="M0 0 C1.05960937 0.00676758 1.05960937 0.00676758 2.140625 0.01367188 C3.88545275 0.02546125 5.630237 0.04339676 7.375 0.0625 C7.375 2.0425 7.375 4.0225 7.375 6.0625 C5.98474609 6.15337891 5.98474609 6.15337891 4.56640625 6.24609375 C3.36886719 6.32988281 2.17132813 6.41367188 0.9375 6.5 C-0.25746094 6.58121094 -1.45242188 6.66242188 -2.68359375 6.74609375 C-5.51070244 6.73906114 -5.51070244 6.73906114 -6.625 8.0625 C-6.78186249 9.62198542 -6.87576639 11.18792668 -6.94140625 12.75390625 C-6.98330078 13.69814453 -7.02519531 14.64238281 -7.06835938 15.61523438 C-7.10767578 16.60845703 -7.14699219 17.60167969 -7.1875 18.625 C-7.25227539 20.12063477 -7.25227539 20.12063477 -7.31835938 21.64648438 C-7.42480298 24.1183415 -7.52681928 26.5903031 -7.625 29.0625 C-9.935 29.0625 -12.245 29.0625 -14.625 29.0625 C-14.77060195 25.33374612 -14.85917043 21.60572566 -14.9375 17.875 C-14.97939453 16.81990234 -15.02128906 15.76480469 -15.06445312 14.67773438 C-15.18855118 6.80991779 -15.18855118 6.80991779 -12.23046875 2.88671875 C-8.01180769 -0.06697648 -5.01870414 -0.06018741 0 0 Z " fill="#151515" transform="translate(264.625,66.9375)"/>
<path d="M0 0 C2.31 0 4.62 0 7 0 C7 9.57 7 19.14 7 29 C4.69 29 2.38 29 0 29 C0 19.43 0 9.86 0 0 Z " fill="#191919" transform="translate(276,67)"/>
<path d="M0 0 C1.74796875 -0.02126953 1.74796875 -0.02126953 3.53125 -0.04296875 C6.5 0.1875 6.5 0.1875 8.5 2.1875 C8.5 3.5075 8.5 4.8275 8.5 6.1875 C2.56 6.1875 -3.38 6.1875 -9.5 6.1875 C-9.17 4.5375 -8.84 2.8875 -8.5 1.1875 C-5.65161879 -0.2366906 -3.17212092 0.01754492 0 0 Z " fill="#DBDCDD" transform="translate(229.5,72.8125)"/>
<path d="M0 0 C1.1653125 0.00515625 2.330625 0.0103125 3.53125 0.015625 C4.6965625 0.01046875 5.861875 0.0053125 7.0625 0 C10.03125 0.265625 10.03125 0.265625 12.03125 2.265625 C12.03125 3.585625 12.03125 4.905625 12.03125 6.265625 C6.09125 6.265625 0.15125 6.265625 -5.96875 6.265625 C-4.50307032 0.40290629 -4.50307032 0.40290629 0 0 Z " fill="#E0E1E1" transform="translate(300.96875,72.734375)"/>
<path d="M0 0 C0.66 0 1.32 0 2 0 C0.84826645 2.46800047 -0.04783565 4.04783565 -2 6 C5.92 6.33 13.84 6.66 22 7 C21.67 7.99 21.34 8.98 21 10 C21 9.34 21 8.68 21 8 C11.76 8 2.52 8 -7 8 C-1 1 -1 1 0 0 Z " fill="#292828" transform="translate(84,77)"/>
<path d="M0 0 C2.31 0 4.62 0 7 0 C7 2.31 7 4.62 7 7 C4.69 7 2.38 7 0 7 C0 4.69 0 2.38 0 0 Z " fill="#333333" transform="translate(276,57)"/>
<path d="M0 0 C0.66 0.33 1.32 0.66 2 1 C-1.96 4.96 -5.92 8.92 -10 13 C-10 8.41771462 -7.08388033 6.1816619 -4 3 C-1.625 1.0625 -1.625 1.0625 0 0 Z " fill="#D9D9D9" transform="translate(78,69)"/>
<path d="M0 0 C2.31 0 4.62 0 7 0 C7 0.99 7 1.98 7 3 C4.69 3 2.38 3 0 3 C0 2.01 0 1.02 0 0 Z " fill="#F6F6F6" transform="translate(276,64)"/>
<path d="M0 0 C-1.28519565 2.86697492 -2.57129254 4.97607712 -5 7 C-5.66 7 -6.32 7 -7 7 C-3.86206897 0 -3.86206897 0 0 0 Z " fill="#232322" transform="translate(86,77)"/>
</svg>
